<?xml version="1.0" encoding="UTF-8" standalone="no"?>
<!-- Created with Inkscape (http://www.inkscape.org/) -->
<svg xmlns:dc="http://purl.org/dc/elements/1.1/" xmlns:cc="http://creativecommons.org/ns#" xmlns:rdf="http://www.w3.org/1999/02/22-rdf-syntax-ns#" xmlns:svg="http://www.w3.org/2000/svg" xmlns="http://www.w3.org/2000/svg" version="1.1" width="965.71625" height="1080" id="svg2985" xml:space="preserve"><metadata id="metadata2991"><rdf:RDF><cc:Work rdf:about=""><dc:format>image/svg+xml</dc:format><dc:type rdf:resource="http://purl.org/dc/dcmitype/StillImage"/><dc:title/></cc:Work></rdf:RDF></metadata><defs id="defs2989"><clipPath id="clipPath2999"><path d="m 0,864 772.573,0 0,-864 L 0,0 0,864 z" id="path3001"/></clipPath></defs><g transform="matrix(1.25,0,0,-1.25,0,1080)" id="g2993" style="display:inline"><path d="m 107.51276,240.94014 c 0.52996,-1.74702 10.14707,-40.04019 21.37137,-85.09592 20.35151,-81.693524 20.42494,-81.9368 26.61713,-88.188855 5.29096,-5.342114 7.29055,-6.26935 13.51988,-6.26935 5.09339,0 44.32173,12.352665 129.34529,40.729715 l 122.03473,40.72971 -16.11256,1.25069 -16.11256,1.25069 -107.09423,-35.64586 -107.09422,-35.645861 -5.67511,2.706271 c -3.21503,1.53314 -6.49608,4.76609 -7.56899,7.458027 -1.04164,2.613466 -9.85097,36.725443 -19.57629,75.804393 -18.75528,75.36378 -17.21453,71.20328 -29.82824,80.54534 -4.48687,3.32311 -4.72883,3.34656 -3.8262,0.37101 z" transform="matrix(0.8,0,0,-0.8,0,864)" id="path3096" style="fill:#ffffff"/><path d="m 855.9063,232.75841 -7.51752,-5.574 -17.37894,-69.94254 c -9.55842,-38.4684 -18.36273,-71.905461 -19.56512,-74.304582 -1.20241,-2.399121 -4.58707,-5.356523 -7.5215,-6.571999 -5.08146,-2.104811 -10.40113,-0.523825 -111.80543,33.228171 l -106.47012,35.43813 -17.34153,-1.13646 -17.34153,-1.13646 122.79877,-40.73479 C 811.80528,56.232634 808.0183,57.111747 818.40586,68.446541 c 5.00279,5.458984 6.57898,10.878092 25.46765,87.560239 11.07416,44.95761 20.0033,81.87262 19.84256,82.03336 -0.16066,0.16067 -3.67514,-2.21604 -7.80977,-5.28173 l 0,0 z" transform="matrix(0.8,0,0,-0.8,0,864)" id="path3098" style="fill:#ffffff"/><path d="m 110.64209,1018.2341 c -6.04316,-2.9785 -11.303523,-9.4151 -12.840667,-15.7117 -0.547488,-2.2426 8.054197,-119.93419 19.114847,-261.53676 11.06065,-141.60254 20.11028,-259.6864 20.11028,-262.40856 0,-3.87371 -1.88574,-6.59929 -8.67658,-12.54081 -19.91764,-17.4266 -29.621643,-28.95151 -37.279428,-44.27477 -9.63365,-19.27695 -12.928203,-32.66085 -12.973744,-52.70498 -0.07972,-35.08908 11.172046,-61.80674 37.896302,-89.9859 50.16532,-52.89637 148.08069,-89.0386 280.16658,-103.41423 21.56614,-2.34717 41.62947,-3.01225 91.95046,-3.04808 65.62809,-0.0467 81.49745,0.89741 128.73065,7.65873 131.99101,18.89421 226.81518,63.4068 264.14043,123.99345 29.15402,47.32301 23.08537,106.83155 -14.75627,144.69869 -7.05138,7.05613 -15.6419,15.16905 -19.09004,18.02874 -5.36618,4.45039 -6.26935,6.17976 -6.26935,12.00442 0,3.74275 9.01671,122.52685 20.03714,263.96466 l 20.03714,257.1597 -3.73683,7.4087 c -2.3614,4.6818 -5.88098,8.5278 -9.56214,10.449 -5.58131,2.9128 -21.44223,3.0385 -378.66874,3.002 -340.03386,-0.035 -373.32623,-0.276 -378.33004,-2.7423 l 0,0 z m 748.70616,-12.3156 c 1.76905,-0.9468 4.33007,-3.8749 5.69117,-6.50698 2.2465,-4.34426 0.63665,-28.50648 -17.45683,-262.00925 C 836.62024,595.92924 827.30654,476.79314 826.88551,472.65536 l -0.76555,-7.52321 10.29851,-7.10539 c 33.46376,-23.08809 49.62381,-52.42274 49.5617,-89.96737 -0.0388,-23.4178 -5.4488,-41.57562 -18.1094,-60.78057 -27.30614,-41.42093 -88.37285,-76.62216 -169.94639,-97.96374 -72.88771,-19.06917 -155.2947,-27.09104 -245.966,-23.94345 -144.31913,5.00993 -266.35341,42.21508 -323.57845,98.65085 -54.226158,53.47824 -49.309524,132.55793 10.73872,172.72268 12.42778,8.31264 12.45419,8.34633 11.79469,15.04644 -4.18965,42.56385 -40.35988,522.15586 -39.60668,525.15687 0.56003,2.23134 2.91596,5.54973 5.23539,7.37423 4.17691,3.2855 7.72558,3.3172 371.90346,3.3172 248.98444,0 368.72469,-0.5557 370.90274,-1.7214 z" transform="matrix(0.8,0,0,-0.8,0,864)" id="path3100" style="fill:#ffffff"/><path d="m 142.61419,970.44174 c 2.86053,-21.35394 39.97479,-514.39736 39.00727,-518.19102 -0.84855,-3.32712 -5.79458,-7.68152 -18.7149,-16.47627 -19.7062,-13.4138 -27.18519,-21.22441 -34.32173,-35.84354 -9.7703,-20.01433 -9.41062,-43.94859 0.99022,-65.89251 7.11982,-15.02156 28.28918,-37.14936 47.24263,-49.38154 49.01635,-31.63417 122.53825,-53.56565 216.55652,-64.5985 37.46662,-4.39663 111.6896,-6.02646 151.57805,-3.32844 186.07729,12.58614 310.787,73.36912 310.9399,151.5508 0.0533,27.28256 -12.90356,48.13749 -42.13793,67.82355 -8.01496,5.39716 -15.3501,11.2657 -16.30031,13.04118 -0.95022,1.7755 -1.72767,6.545 -1.72767,10.5989 0,7.67139 37.62427,495.90995 39.29055,509.86148 l 0.94846,7.94118 -347.15144,0 -347.15143,0 0.95181,-7.10527 0,0 z M 221.7038,743.43017 c 40.06663,-31.85495 82.41248,-54.86497 106.15164,-57.68101 18.85853,-2.23707 24.65054,-6.79469 19.9046,-15.66254 -1.5614,-2.91749 -3.44371,-3.49937 -11.32017,-3.49937 -31.55066,0 -87.14861,28.57506 -135.67493,69.73134 -6.01335,5.10006 -7.44358,11.67943 -3.5569,16.36259 3.94335,4.75144 9.54413,2.63627 24.49576,-9.25101 l 0,0 z m 558.11143,0.68684 c 5.45327,-5.45326 2.52861,-10.81455 -12.51004,-22.93261 -31.74078,-25.57656 -72.03774,-49.24894 -98.63777,-57.94463 -13.78898,-4.50768 -34.02044,-6.32397 -37.57568,-3.37338 -1.40149,1.16314 -2.54816,4.23698 -2.54816,6.83077 0,5.86345 5.35258,9.92105 13.08732,9.92105 23.05728,0 72.38053,25.56589 113.72066,58.94523 14.43617,11.65623 19.56704,13.45022 24.46367,8.55357 z M 553.78208,699.86822 c 17.15966,-5.77572 39.06527,-23.7971 55.34303,-45.52977 7.59792,-10.14409 8.33071,-19.90375 2.00678,-26.72738 -9.37087,-10.11134 -20.48805,-7.35376 -32.81692,8.14014 -11.32975,14.2383 -25.66796,26.8311 -34.30624,30.13008 -6.42934,2.45538 -7.43434,2.45398 -12.21301,-0.0172 -6.12224,-3.16594 -13.70842,-15.61244 -18.80658,-30.85563 -3.47502,-10.3901 -3.48681,-10.72763 -0.43307,-12.39658 1.72657,-0.94361 5.70856,-4.41003 8.84887,-7.70312 16.16439,-16.95091 16.54295,-42.66841 0.88444,-60.08445 -28.63834,-31.85274 -81.05453,-9.30427 -77.19948,33.20978 1.35227,14.91328 7.48779,25.32669 20.31672,34.48235 l 4.88163,3.48386 -3.91796,12.18483 c -2.15486,6.70167 -6.26437,15.26948 -9.1322,19.0396 -4.26961,5.6129 -6.37616,6.95108 -11.62767,7.38644 -11.41134,0.94606 -23.74253,-6.12846 -43.66007,-25.04817 -7.58862,-7.20847 -13.9526,-11.80631 -17.25576,-12.46693 -14.32473,-2.86496 -24.88663,12.39681 -17.91252,25.88325 1.3129,2.53889 7.78224,9.70564 14.37627,15.92612 39.06344,36.85047 75.95682,42.01264 101.02118,14.13503 4.18136,-4.65065 7.60245,-9.18433 7.60245,-10.07481 0,-0.89048 2.70307,2.01209 6.00684,6.45016 7.44377,9.99954 13.17667,15.1105 20.74238,18.49217 13.89134,6.20908 23.17593,6.69764 37.25089,1.9602 l 0,5e-5 z M 187.32494,677.56753 c 26.33907,-20.47985 70.68031,-31.0422 130.31661,-31.0422 18.7791,0 23.60126,-0.49225 25.73617,-2.62715 4.00023,-4.00022 3.25217,-10.26086 -1.60639,-13.44432 -3.70994,-2.43083 -8.31074,-2.66195 -37.19814,-1.86861 -36.0611,0.99034 -62.11928,4.69407 -84.39673,11.99557 -27.71545,9.08384 -53.05703,25.35669 -53.05703,34.07007 0,10.22471 9.11454,11.54037 20.20551,2.91664 l 0,0 z m 617.53537,-12.58475 c 2.05169,-2.26706 2.62766,-4.62036 1.86988,-7.63962 -2.98336,-11.88664 -53.53124,-24.82263 -113.82129,-29.12866 -39.26713,-2.80454 -58.45164,-2.89563 -61.59482,-0.29252 -3.42542,2.83689 -3.61778,10.80345 -0.32681,13.53473 1.54759,1.28438 13.34903,2.55916 32.18266,3.47638 61.21574,2.9812 101.36521,9.38722 124.19718,19.81617 9.46663,4.32408 13.73969,4.38113 17.4932,0.23352 l 0,0 z M 372.2931,577.02896 c 30.02288,-14.67037 36.04226,-55.06693 11.7842,-79.08488 -13.87559,-13.73827 -38.81165,-17.63355 -56.11354,-8.76557 -28.47074,14.59251 -35.96818,52.49456 -15.07844,76.22655 15.20664,17.27566 38.51018,21.8353 59.40778,11.6239 l 0,0 z m 275.61372,1.8378 c 24.69335,-10.31754 37.09117,-42.25174 25.33269,-65.25164 -10.79087,-21.10723 -37.32553,-33.65829 -58.51674,-27.67878 -14.75663,4.16387 -29.33643,18.39048 -33.14965,32.3466 -9.42231,34.4849 16.19305,66.7504 50.72187,63.89004 5.28153,-0.43751 12.30687,-1.92532 15.61183,-3.30622 l 0,0 z" transform="matrix(0.8,0,0,-0.8,0,864)" id="path3102" style="fill:#ffffff"/><path d="m 806.94486,202.56303 c -1.63023,-0.91232 -11.47766,-5.31184 -21.88319,-9.7767 -31.62307,-13.56901 -77.0741,-27.35472 -113.46856,-34.41605 -8.04566,-1.56103 -14.62848,-3.30685 -14.62848,-3.8796 0,-1.67293 128.83484,-44.09327 130.0951,-42.8353 1.05182,1.0499 23.74707,91.61164 23.12431,92.27385 -0.15131,0.16091 -1.60895,-0.45388 -3.23918,-1.3662 l 0,0 z" transform="matrix(0.8,0,0,-0.8,0,864)" id="path3104" style="fill:#ffffff"/><path d="m 162.10395,204.45032 c 0,-3.04228 22.17137,-91.05913 23.24757,-92.28921 0.57596,-0.6583 31.50425,8.77666 68.72953,20.96659 l 67.68234,22.16352 -12.5387,2.21258 c -39.92641,7.0454 -102.70326,27.15628 -134.05726,42.9459 -12.44637,6.26789 -13.06348,6.45688 -13.06348,4.00062 z" transform="matrix(0.8,0,0,-0.8,0,864)" id="path3106" style="fill:#ffffff"/></g></svg>